<?xml version='1.0' encoding='UTF-8' ?>
<!DOCTYPE svg PUBLIC "-//W3C//DTD SVG 1.1//EN" "http://www.w3.org/Graphics/SVG/1.1/DTD/svg11.dtd" [ 
 <!ATTLIST svg 
                                               xmlns:dsy CDATA #FIXED "http://www.3ds.com/print"  
                                               dsy:text-version CDATA #IMPLIED > 

                                               <!ATTLIST text 
                                               xmlns:dsy CDATA #FIXED "http://www.3ds.com/print" 
                                               dsy:text-version CDATA #IMPLIED > 
                                                ]>
<svg style = "background : rgb(255,255,255)" width = "1189mm" xmlns = "http://www.w3.org/2000/svg" height = "841mm" version = "1.1" viewBox = "0 0 1189 841" xmlns:dsy = "http://www.3ds.com/print" xmlns:xlink = "http://www.w3.org/1999/xlink" dsy:text-version = "21000"><g fill = "none" stroke = "rgb(0, 0, 0)" stroke-width = "0.35" stroke-linecap = "butt" stroke-linejoin = "miter"><path d = "M 523.105 560.978 L 518.966 604.629"/><path d = "M 182.271 738.006 L 243.387 739.953 L 287.706 741.351 L 297.394 741.653 L 309.882 742.122 L 314.995 742.349 L 325.259 742.849 L 336.925 743.433 L 348.384 743.935 L 354.156 744.136 L 359.769 744.288 L 365.396 744.393 L 372.571 744.453 L 379.721 744.437 L 383.479 744.402 L 391.048 744.294 L 404.677 744.068 L 498.034 742.525"/><path d = "M 168.73477 723.30182 A 13.999999 13.999999 0 0 0 182.27101 738.00623"/><path d = "M 498.03366 742.52484 A 13.999999 13.999999 0 0 0 509.86789 735.62744"/><path d = "M 509.868 735.627 L 507.015 669.344"/><path d = "M 506.971 668.31 L 507.015 669.345"/><path d = "M 507.00174 667.44659 A 5.5275936 5.5275936 0 0 0 506.97101 668.30951"/><path d = "M 507.00098 667.44733 A 6850.5542 6850.5542 0 0 0 513.40918 609.22241"/><path d = "M 513.409 609.224 L 518.966 604.629"/><path d = "M 523.10535 560.97833 A 27.030094 27.030094 0 0 0 513.61084 548.17804"/><path d = "M 513.61084 548.17804 A 4.999989 4.999989 0 0 0 510.37604 547.21588"/><path d = "M 496.47778 547.96533 A 3838.2739 3838.2739 0 0 0 510.37653 547.21558"/><path d = "M 226.578 548.531 L 244.238 549.309 L 261.926 549.975 L 279.63 550.529 L 297.321 550.971 L 314.981 551.298 L 333.764 551.518 L 352.591 551.606 L 369.357 551.571 L 386.141 551.433 L 402.896 551.191 L 421.641 550.799 L 440.364 550.28 L 459.078 549.635 L 477.783 548.864 L 496.477 547.965"/><path d = "M 226.5775 548.53064 A 22.009565 22.009565 0 0 0 204.67514 563.50024"/><path d = "M 172.655 659.295 L 184.661 623.162 L 194.479 593.846 L 204.675 563.5"/><path d = "M 172.65491 659.29541 A 16.987144 16.987144 0 0 0 171.8284 663.65222"/><path d = "M 171.828 663.652 L 171.771 664.669"/><path d = "M 171.77 664.674 L 171.771 664.669"/><path d = "M 171.77051 664.67444 A 2857.7988 2857.7988 0 0 0 171.4043 671.29938"/><path d = "M 171.403 671.313 L 171.404 671.3"/><path d = "M 171.403 671.313 L 170.932 680.32"/><path d = "M 170.932 680.32 L 168.735 723.302"/></g><g fill = "none" stroke = "rgb(0, 0, 0)" stroke-width = "0.13" stroke-linecap = "butt" stroke-linejoin = "miter"><path d = "M 353.211 761.503 L 353.211 619.503"/><path d = "M 509.898 641.839 L 180.934 641.839"/></g></svg>
